<svg width="460" height="76" viewBox="0 0 460 76" fill="none" xmlns="http://www.w3.org/2000/svg">
<path d="M60.207 66.9199C56.9518 69.6868 53.3223 71.819 49.3184 73.3164C45.3145 74.7812 41.1478 75.5137 36.8184 75.5137C33.498 75.5137 30.2917 75.0742 27.1992 74.1953C24.1393 73.349 21.2747 72.1445 18.6055 70.582C15.9362 68.987 13.4948 67.099 11.2812 64.918C9.06771 62.7044 7.17969 60.263 5.61719 57.5938C4.05469 54.8919 2.83398 51.9948 1.95508 48.9023C1.10872 45.8099 0.685547 42.6035 0.685547 39.2832C0.685547 35.9629 1.10872 32.7728 1.95508 29.7129C2.83398 26.653 4.05469 23.7884 5.61719 21.1191C7.17969 18.4173 9.06771 15.9759 11.2812 13.7949C13.4948 11.5814 15.9362 9.69336 18.6055 8.13086C21.2747 6.56836 24.1393 5.36393 27.1992 4.51758C30.2917 3.63867 33.498 3.19922 36.8184 3.19922C41.1478 3.19922 45.3145 3.94792 49.3184 5.44531C53.3223 6.91016 56.9518 9.02604 60.207 11.793L52.8828 24C50.7669 21.8516 48.3255 20.1751 45.5586 18.9707C42.7917 17.7337 39.8783 17.1152 36.8184 17.1152C33.7585 17.1152 30.8776 17.7012 28.1758 18.873C25.5065 20.0449 23.1628 21.64 21.1445 23.6582C19.1263 25.6439 17.5312 27.9876 16.3594 30.6895C15.1875 33.3587 14.6016 36.2233 14.6016 39.2832C14.6016 42.3757 15.1875 45.2728 16.3594 47.9746C17.5312 50.6764 19.1263 53.0365 21.1445 55.0547C23.1628 57.0729 25.5065 58.668 28.1758 59.8398C30.8776 61.0117 33.7585 61.5977 36.8184 61.5977C38.5762 61.5977 40.2852 61.3861 41.9453 60.9629C43.6055 60.5397 45.1842 59.9538 46.6816 59.2051V39.2832H60.207V66.9199ZM99.416 74H85.4512V17.9941H64.4062V3.98047H120.412V17.9941H99.416V74ZM168.85 74H165.627L160.451 66.8223C159.182 67.9616 157.831 69.0358 156.398 70.0449C154.999 71.0215 153.518 71.8841 151.955 72.6328C150.393 73.349 148.781 73.9186 147.121 74.3418C145.493 74.765 143.833 74.9766 142.141 74.9766C138.462 74.9766 134.995 74.3581 131.74 73.1211C128.518 71.8841 125.686 70.0938 123.244 67.75C120.835 65.3737 118.931 62.4766 117.531 59.0586C116.132 55.6406 115.432 51.7507 115.432 47.3887C115.432 43.3197 116.132 39.5924 117.531 36.207C118.931 32.7891 120.835 29.8594 123.244 27.418C125.686 24.9766 128.518 23.0885 131.74 21.7539C134.995 20.3867 138.462 19.7031 142.141 19.7031C143.833 19.7031 145.51 19.9147 147.17 20.3379C148.83 20.7611 150.441 21.347 152.004 22.0957C153.566 22.8444 155.048 23.7233 156.447 24.7324C157.88 25.7415 159.214 26.832 160.451 28.0039L165.627 21.8027H168.85V74ZM155.422 47.3887C155.422 45.5658 155.064 43.8079 154.348 42.1152C153.664 40.39 152.72 38.8763 151.516 37.5742C150.311 36.2396 148.895 35.1816 147.268 34.4004C145.673 33.5866 143.964 33.1797 142.141 33.1797C140.318 33.1797 138.592 33.4889 136.965 34.1074C135.37 34.7259 133.97 35.6374 132.766 36.8418C131.594 38.0462 130.666 39.5436 129.982 41.334C129.299 43.0918 128.957 45.11 128.957 47.3887C128.957 49.6673 129.299 51.7018 129.982 53.4922C130.666 55.25 131.594 56.7311 132.766 57.9355C133.97 59.14 135.37 60.0514 136.965 60.6699C138.592 61.2884 140.318 61.5977 142.141 61.5977C143.964 61.5977 145.673 61.207 147.268 60.4258C148.895 59.612 150.311 58.554 151.516 57.252C152.72 55.9173 153.664 54.4036 154.348 52.7109C155.064 50.9857 155.422 49.2116 155.422 47.3887ZM192.385 74H179.055V21.7051H182.277L186.672 26.7832C188.82 24.8301 191.245 23.3327 193.947 22.291C196.682 21.2168 199.53 20.6797 202.492 20.6797C205.682 20.6797 208.693 21.2982 211.525 22.5352C214.357 23.7396 216.831 25.416 218.947 27.5645C221.063 29.6803 222.723 32.1706 223.928 35.0352C225.165 37.8672 225.783 40.8945 225.783 44.1172V74H212.453V44.1172C212.453 42.75 212.193 41.4642 211.672 40.2598C211.151 39.0228 210.435 37.9486 209.523 37.0371C208.612 36.1257 207.554 35.4095 206.35 34.8887C205.145 34.3678 203.859 34.1074 202.492 34.1074C201.092 34.1074 199.774 34.3678 198.537 34.8887C197.3 35.4095 196.226 36.1257 195.314 37.0371C194.403 37.9486 193.687 39.0228 193.166 40.2598C192.645 41.4642 192.385 42.75 192.385 44.1172V74ZM285.939 74H282.717L277.541 66.8223C276.271 67.9616 274.921 69.0358 273.488 70.0449C272.089 71.0215 270.607 71.8841 269.045 72.6328C267.482 73.349 265.871 73.9186 264.211 74.3418C262.583 74.765 260.923 74.9766 259.23 74.9766C255.552 74.9766 252.085 74.3581 248.83 73.1211C245.607 71.8841 242.775 70.0938 240.334 67.75C237.925 65.3737 236.021 62.4766 234.621 59.0586C233.221 55.6406 232.521 51.7507 232.521 47.3887C232.521 43.3197 233.221 39.5924 234.621 36.207C236.021 32.7891 237.925 29.8594 240.334 27.418C242.775 24.9766 245.607 23.0885 248.83 21.7539C252.085 20.3867 255.552 19.7031 259.23 19.7031C260.923 19.7031 262.6 19.9147 264.26 20.3379C265.92 20.7611 267.531 21.347 269.094 22.0957C270.656 22.8444 272.137 23.7233 273.537 24.7324C274.969 25.7415 276.304 26.832 277.541 28.0039L282.717 21.8027H285.939V74ZM272.512 47.3887C272.512 45.5658 272.154 43.8079 271.438 42.1152C270.754 40.39 269.81 38.8763 268.605 37.5742C267.401 36.2396 265.985 35.1816 264.357 34.4004C262.762 33.5866 261.053 33.1797 259.23 33.1797C257.408 33.1797 255.682 33.4889 254.055 34.1074C252.46 34.7259 251.06 35.6374 249.855 36.8418C248.684 38.0462 247.756 39.5436 247.072 41.334C246.389 43.0918 246.047 45.11 246.047 47.3887C246.047 49.6673 246.389 51.7018 247.072 53.4922C247.756 55.25 248.684 56.7311 249.855 57.9355C251.06 59.14 252.46 60.0514 254.055 60.6699C255.682 61.2884 257.408 61.5977 259.23 61.5977C261.053 61.5977 262.762 61.207 264.357 60.4258C265.985 59.612 267.401 58.554 268.605 57.252C269.81 55.9173 270.754 54.4036 271.438 52.7109C272.154 50.9857 272.512 49.2116 272.512 47.3887ZM309.572 74H296.145V0.904297H309.572V46.998L329.445 21.8027H344.777L327.443 43.5801L344.777 74H329.445L318.85 55.0059L309.572 67.3105V74ZM399.025 74H395.803L390.627 66.8223C389.357 67.9616 388.007 69.0358 386.574 70.0449C385.174 71.0215 383.693 71.8841 382.131 72.6328C380.568 73.349 378.957 73.9186 377.297 74.3418C375.669 74.765 374.009 74.9766 372.316 74.9766C368.638 74.9766 365.171 74.3581 361.916 73.1211C358.693 71.8841 355.861 70.0938 353.42 67.75C351.011 65.3737 349.107 62.4766 347.707 59.0586C346.307 55.6406 345.607 51.7507 345.607 47.3887C345.607 43.3197 346.307 39.5924 347.707 36.207C349.107 32.7891 351.011 29.8594 353.42 27.418C355.861 24.9766 358.693 23.0885 361.916 21.7539C365.171 20.3867 368.638 19.7031 372.316 19.7031C374.009 19.7031 375.686 19.9147 377.346 20.3379C379.006 20.7611 380.617 21.347 382.18 22.0957C383.742 22.8444 385.223 23.7233 386.623 24.7324C388.055 25.7415 389.39 26.832 390.627 28.0039L395.803 21.8027H399.025V74ZM385.598 47.3887C385.598 45.5658 385.24 43.8079 384.523 42.1152C383.84 40.39 382.896 38.8763 381.691 37.5742C380.487 36.2396 379.071 35.1816 377.443 34.4004C375.848 33.5866 374.139 33.1797 372.316 33.1797C370.493 33.1797 368.768 33.4889 367.141 34.1074C365.546 34.7259 364.146 35.6374 362.941 36.8418C361.77 38.0462 360.842 39.5436 360.158 41.334C359.475 43.0918 359.133 45.11 359.133 47.3887C359.133 49.6673 359.475 51.7018 360.158 53.4922C360.842 55.25 361.77 56.7311 362.941 57.9355C364.146 59.14 365.546 60.0514 367.141 60.6699C368.768 61.2884 370.493 61.5977 372.316 61.5977C374.139 61.5977 375.848 61.207 377.443 60.4258C379.071 59.612 380.487 58.554 381.691 57.252C382.896 55.9173 383.84 54.4036 384.523 52.7109C385.24 50.9857 385.598 49.2116 385.598 47.3887ZM459.865 74H456.643L451.467 66.8223C450.197 67.9616 448.846 69.0358 447.414 70.0449C446.014 71.0215 444.533 71.8841 442.971 72.6328C441.408 73.349 439.797 73.9186 438.137 74.3418C436.509 74.765 434.849 74.9766 433.156 74.9766C429.478 74.9766 426.011 74.3581 422.756 73.1211C419.533 71.8841 416.701 70.0938 414.26 67.75C411.851 65.3737 409.947 62.4766 408.547 59.0586C407.147 55.6406 406.447 51.7507 406.447 47.3887C406.447 43.3197 407.147 39.5924 408.547 36.207C409.947 32.7891 411.851 29.8594 414.26 27.418C416.701 24.9766 419.533 23.0885 422.756 21.7539C426.011 20.3867 429.478 19.7031 433.156 19.7031C434.849 19.7031 436.525 19.9147 438.186 20.3379C439.846 20.7611 441.457 21.347 443.02 22.0957C444.582 22.8444 446.063 23.7233 447.463 24.7324C448.895 25.7415 450.23 26.832 451.467 28.0039L456.643 21.8027H459.865V74ZM446.438 47.3887C446.438 45.5658 446.079 43.8079 445.363 42.1152C444.68 40.39 443.736 38.8763 442.531 37.5742C441.327 36.2396 439.911 35.1816 438.283 34.4004C436.688 33.5866 434.979 33.1797 433.156 33.1797C431.333 33.1797 429.608 33.4889 427.98 34.1074C426.385 34.7259 424.986 35.6374 423.781 36.8418C422.609 38.0462 421.682 39.5436 420.998 41.334C420.314 43.0918 419.973 45.11 419.973 47.3887C419.973 49.6673 420.314 51.7018 420.998 53.4922C421.682 55.25 422.609 56.7311 423.781 57.9355C424.986 59.14 426.385 60.0514 427.98 60.6699C429.608 61.2884 431.333 61.5977 433.156 61.5977C434.979 61.5977 436.688 61.207 438.283 60.4258C439.911 59.612 441.327 58.554 442.531 57.252C443.736 55.9173 444.68 54.4036 445.363 52.7109C446.079 50.9857 446.438 49.2116 446.438 47.3887Z" fill="url(#paint0_linear_15_23)"/>
<defs>
<linearGradient id="paint0_linear_15_23" x1="525" y1="74.0001" x2="-74.5" y2="-11.9999" gradientUnits="userSpaceOnUse">
<stop stop-color="#285858"/>
<stop offset="0.0001" stop-color="#0DFFFF"/>
<stop offset="1" stop-color="#F80D0D"/>
</linearGradient>
</defs>
</svg>
